<svg width="16" height="16" viewBox="0 0 16 16" fill="none" xmlns="http://www.w3.org/2000/svg">
<path d="M5.53116 2.83347C5.28321 3.07123 5.26646 3.47422 5.49374 3.73359L9.23233 7.99935L5.49374 12.2651C5.2854 12.5029 5.28211 12.8613 5.47399 13.1025L5.53116 13.1652C5.7791 13.403 6.16434 13.3855 6.39162 13.1261L10.5069 8.42984C10.5095 8.42684 10.5121 8.42383 10.5147 8.42079L10.4695 8.46897C10.4974 8.44224 10.5223 8.41341 10.5444 8.38293C10.5525 8.37161 10.5602 8.36018 10.5675 8.34855C10.5749 8.33679 10.582 8.32462 10.5886 8.31227C10.5947 8.30101 10.6003 8.28983 10.6056 8.27854C10.6118 8.2652 10.6176 8.2514 10.623 8.23744C10.6278 8.22508 10.6322 8.21257 10.6362 8.19996C10.6401 8.18745 10.6436 8.17498 10.6468 8.16242C10.6503 8.14847 10.6534 8.13437 10.656 8.12021C10.6586 8.10565 10.6608 8.091 10.6625 8.0763C10.6638 8.06561 10.6648 8.05473 10.6655 8.04383C10.6665 8.02881 10.667 8.01389 10.667 7.99896C10.667 7.98436 10.6665 7.96966 10.6655 7.955C10.6648 7.94397 10.6638 7.93308 10.6626 7.92222C10.6608 7.9077 10.6586 7.89305 10.656 7.87848C10.6534 7.86433 10.6503 7.85023 10.6468 7.83623C10.6436 7.82372 10.6401 7.81125 10.6362 7.79888C10.6322 7.78613 10.6278 7.77361 10.623 7.76122C10.6176 7.74729 10.6118 7.7335 10.6055 7.71989C10.6003 7.70886 10.5947 7.69769 10.5887 7.68666C10.582 7.67407 10.5749 7.66191 10.5674 7.64996C10.5602 7.63852 10.5525 7.62708 10.5443 7.61586C10.5223 7.58529 10.4974 7.55646 10.4695 7.52972L10.5147 7.5779C10.5121 7.57487 10.5095 7.57185 10.5069 7.56886L6.39162 2.87261C6.16434 2.61324 5.7791 2.59572 5.53116 2.83347Z" fill="#4A4A4A"/>
</svg>
