<svg width="16" height="16" viewBox="0 0 16 16" fill="none" xmlns="http://www.w3.org/2000/svg">
<path d="M10.4688 13.1665C10.7168 12.9288 10.7335 12.5258 10.5063 12.2664L6.76767 8.00065L10.5063 3.73489C10.7146 3.49714 10.7179 3.1387 10.526 2.89748L10.4688 2.83478C10.2209 2.59702 9.83566 2.61454 9.60838 2.87391L5.49309 7.57016C5.49046 7.57316 5.48787 7.57617 5.48531 7.57921L5.5305 7.53103C5.50262 7.55776 5.47766 7.58659 5.45564 7.61707C5.44755 7.62839 5.43984 7.63982 5.43254 7.65145C5.42509 7.66321 5.41801 7.67538 5.41135 7.68773C5.40531 7.69899 5.3997 7.71017 5.39443 7.72146C5.38821 7.7348 5.38236 7.7486 5.37699 7.76256C5.37221 7.77492 5.36783 7.78743 5.36383 7.80004C5.35993 7.81255 5.35639 7.82502 5.35322 7.83758C5.34965 7.85153 5.34659 7.86563 5.34398 7.87979C5.34135 7.89435 5.33916 7.909 5.33746 7.9237C5.33619 7.93439 5.3352 7.94527 5.33447 7.95617C5.3335 7.97119 5.333 7.98611 5.33301 8.00104C5.33302 8.01564 5.33351 8.03034 5.33449 8.045C5.3352 8.05603 5.33619 8.06692 5.33744 8.07778C5.33916 8.0923 5.34135 8.10695 5.34403 8.12152C5.34659 8.13567 5.34965 8.14977 5.35318 8.16377C5.35639 8.17628 5.35993 8.18875 5.36383 8.20112C5.36783 8.21387 5.37221 8.22639 5.37698 8.23878C5.38235 8.25271 5.38821 8.2665 5.39455 8.28011C5.3997 8.29114 5.40531 8.30231 5.41126 8.31334C5.41801 8.32593 5.42509 8.33809 5.43259 8.35004C5.43984 8.36148 5.44755 8.37292 5.45566 8.38414C5.47766 8.41471 5.50262 8.44354 5.5305 8.47028L5.48531 8.4221C5.48787 8.42513 5.49046 8.42815 5.49309 8.43114L9.60838 13.1274C9.83566 13.3868 10.2209 13.4043 10.4688 13.1665Z" fill="#4A4A4A"/>
</svg>
