<svg width="16" height="16" viewBox="0 0 16 16" fill="none" xmlns="http://www.w3.org/2000/svg">
<path d="M11.3333 1.33398C10.9651 1.33398 10.6667 1.63246 10.6667 2.00065V14.0007C10.6667 14.3688 10.9651 14.6673 11.3333 14.6673C11.7015 14.6673 12 14.3688 12 14.0007V2.00065C12 1.63246 11.7015 1.33398 11.3333 1.33398ZM5.00284 2.81836C4.77223 2.61336 4.42636 2.61531 4.19749 2.83477L4.14033 2.89748C3.94845 3.1387 3.95174 3.49714 4.16008 3.73489L7.89867 8.00065L4.16008 12.2664C3.9328 12.5258 3.94955 12.9288 4.19749 13.1665C4.44544 13.4043 4.83068 13.3868 5.05796 13.1274L9.17333 8.43065L9.17533 8.42865L9.17716 8.42663L9.17867 8.42465L9.21068 8.38414C9.21474 8.37853 9.21869 8.37286 9.22254 8.36717L9.23374 8.35004C9.24125 8.33809 9.24833 8.32593 9.25508 8.31334C9.26103 8.30231 9.26664 8.29114 9.27179 8.28011C9.27813 8.2665 9.28398 8.25271 9.28936 8.23878C9.29413 8.22638 9.29851 8.21387 9.3025 8.20112C9.30641 8.18875 9.30995 8.17628 9.31315 8.16377C9.31669 8.14977 9.31975 8.13567 9.3223 8.12152L9.32889 8.07778C9.33015 8.06692 9.33114 8.05603 9.33185 8.045C9.33283 8.03034 9.33332 8.01564 9.33333 8.00104L9.33297 7.97864L9.33186 7.95617C9.33114 7.94527 9.33015 7.93439 9.32888 7.9237L9.32235 7.87979C9.31975 7.86563 9.31668 7.85153 9.31311 7.83758C9.30995 7.82502 9.30641 7.81255 9.3025 7.80004C9.29851 7.78743 9.29413 7.77492 9.28935 7.76256C9.28398 7.7486 9.27813 7.7348 9.27191 7.72146C9.26664 7.71017 9.26103 7.69899 9.25499 7.68773C9.24833 7.67538 9.24125 7.66321 9.2338 7.65145L9.2107 7.61707C9.18868 7.58659 9.16372 7.55776 9.13584 7.53103L9.166 7.56198L5.05796 2.87391L5.00284 2.81836Z" fill="#4A4A4A"/>
</svg>
