<svg width="8" height="14" viewBox="0 0 8 14" fill="none" xmlns="http://www.w3.org/2000/svg">
<path d="M0.666667 0.333984C1.03486 0.333984 1.33333 0.632461 1.33333 1.00065V13.0007C1.33333 13.3688 1.03486 13.6673 0.666667 13.6673C0.298477 13.6673 0 13.3688 0 13.0007V1.00065C0 0.632461 0.298477 0.333984 0.666667 0.333984ZM6.99716 1.81836C7.22777 1.61336 7.57364 1.61531 7.80251 1.83478L7.85967 1.89748C8.05155 2.1387 8.04826 2.49714 7.83992 2.73489L4.10133 7.00065L7.83992 11.2664C8.0672 11.5258 8.05045 11.9288 7.80251 12.1665C7.55456 12.4043 7.16932 12.3868 6.94204 12.1274L2.82667 7.43065L2.82467 7.42865L2.82284 7.42663L2.82133 7.42465L2.78932 7.38414C2.78526 7.37853 2.78131 7.37286 2.77746 7.36717L2.76626 7.35004C2.75875 7.33809 2.75167 7.32593 2.74492 7.31334C2.73897 7.30231 2.73336 7.29114 2.72821 7.28011C2.72187 7.2665 2.71602 7.25271 2.71064 7.23878C2.70587 7.22638 2.70149 7.21387 2.6975 7.20112C2.69359 7.18875 2.69005 7.17628 2.68685 7.16377C2.68331 7.14977 2.68025 7.13567 2.6777 7.12152L2.67111 7.07778C2.66985 7.06692 2.66886 7.05603 2.66815 7.045C2.66717 7.03034 2.66668 7.01564 2.66667 7.00104L2.66703 6.97864L2.66814 6.95617C2.66886 6.94527 2.66985 6.93439 2.67112 6.9237L2.67765 6.87979C2.68025 6.86563 2.68332 6.85153 2.68689 6.83758C2.69005 6.82502 2.69359 6.81255 2.6975 6.80004C2.70149 6.78743 2.70587 6.77492 2.71065 6.76256C2.71602 6.7486 2.72187 6.7348 2.72809 6.72146C2.73336 6.71017 2.73897 6.69899 2.74501 6.68773C2.75167 6.67538 2.75875 6.66321 2.7662 6.65145L2.7893 6.61707C2.81132 6.58659 2.83628 6.55776 2.86416 6.53103L2.834 6.56198L6.94204 1.87391L6.99716 1.81836Z" fill="#4A4A4A"/>
</svg>
