<svg width="16" height="16" viewBox="0 0 16 16" fill="none" xmlns="http://www.w3.org/2000/svg">
<mask id="mask0_1115_11073" style="mask-type:luminance" maskUnits="userSpaceOnUse" x="0" y="0" width="16" height="16">
<rect width="16" height="16" fill="white"/>
</mask>
<g mask="url(#mask0_1115_11073)">
<path fill-rule="evenodd" clip-rule="evenodd" d="M7.43464 11.179C7.28461 11.029 7.20033 10.8255 7.20033 10.6133C7.20033 10.4011 7.28461 10.1976 7.43464 10.0476C7.58467 9.89759 7.78815 9.8133 8.00033 9.8133C8.2125 9.8133 8.41598 9.89759 8.56601 10.0476C8.71604 10.1976 8.80033 10.4011 8.80033 10.6133C8.80033 10.8255 8.71604 11.029 8.56601 11.179C8.41598 11.329 8.2125 11.4133 8.00033 11.4133C7.78815 11.4133 7.58467 11.329 7.43464 11.179ZM7.52892 4.38523C7.65395 4.26021 7.82351 4.18997 8.00033 4.18997C8.17714 4.18997 8.34671 4.26021 8.47173 4.38523C8.59675 4.51026 8.66699 4.67982 8.66699 4.85664V8.18997C8.66699 8.36678 8.59675 8.53635 8.47173 8.66137C8.34671 8.7864 8.17714 8.85664 8.00033 8.85664C7.82351 8.85664 7.65395 8.7864 7.52892 8.66137C7.4039 8.53635 7.33366 8.36678 7.33366 8.18997V4.85664C7.33366 4.67982 7.4039 4.51026 7.52892 4.38523ZM0.666992 8.0013C0.666992 12.052 3.95033 15.3346 8.00033 15.3346C12.0503 15.3346 15.3337 12.052 15.3337 8.0013C15.3337 3.9513 12.0503 0.667969 8.00033 0.667969C3.95033 0.667969 0.666992 3.9513 0.666992 8.0013Z" fill="#E14544"/>
</g>
</svg>
