<svg width="32" height="32" viewBox="0 0 32 32" fill="none" xmlns="http://www.w3.org/2000/svg">
<g clip-path="url(#clip0_1983_124201)">
<path d="M16 32C24.8366 32 32 24.8366 32 16C32 7.16344 24.8366 0 16 0C7.16344 0 0 7.16344 0 16C0 24.8366 7.16344 32 16 32Z" fill="white"/>
<path d="M16 31.5C24.5604 31.5 31.5 24.5604 31.5 16C31.5 7.43959 24.5604 0.5 16 0.5C7.43959 0.5 0.5 7.43959 0.5 16C0.5 24.5604 7.43959 31.5 16 31.5Z" stroke="#E5E7EA"/>
<path fill-rule="evenodd" clip-rule="evenodd" d="M24.9996 16.388C24.9982 15.7585 24.9437 15.1303 24.8366 14.51H16.1836V18.061H21.1226C21.0209 18.6245 20.8054 19.1612 20.4892 19.6386C20.173 20.1159 19.7628 20.5237 19.2836 20.837V23.143H22.2526C23.1595 22.2734 23.8727 21.2223 24.3457 20.0583C24.8187 18.8943 25.0408 17.6437 24.9976 16.388H24.9996Z" fill="#3E82F1"/>
<path fill-rule="evenodd" clip-rule="evenodd" d="M16.1845 25.368C18.4208 25.4266 20.5955 24.6314 22.2665 23.144L19.2975 20.838C18.3705 21.4336 17.287 21.7393 16.1855 21.716C15.0398 21.7016 13.9275 21.3285 13.0048 20.6493C12.0821 19.97 11.3955 19.0186 11.0415 17.929H7.98047V20.307C8.74368 21.8278 9.91472 23.1066 11.3628 24.0003C12.8108 24.894 14.4788 25.3675 16.1805 25.368H16.1845Z" fill="#32A753"/>
<path fill-rule="evenodd" clip-rule="evenodd" d="M11.0406 17.928C10.6596 16.7959 10.6596 15.5702 11.0406 14.438V12.061H7.97963C7.33551 13.3398 7 14.7517 7 16.1835C7 17.6154 7.33551 19.0273 7.97963 20.306L11.0406 17.928Z" fill="#F9BB00"/>
<path fill-rule="evenodd" clip-rule="evenodd" d="M16.1845 10.6529C16.8314 10.6409 17.4743 10.7563 18.0765 10.9928C18.6788 11.2292 19.2286 11.582 19.6945 12.0309L22.3275 9.39993C20.6691 7.83259 18.4661 6.97188 16.1845 6.99993C14.4821 6.9996 12.8133 7.47276 11.3645 8.36653C9.91565 9.2603 8.74398 10.5394 7.98047 12.0609L11.0515 14.4389C11.402 13.3493 12.0863 12.3975 13.0074 11.7181C13.9285 11.0387 15.04 10.6661 16.1845 10.6529Z" fill="#E74133"/>
</g>
<defs>
<clipPath id="clip0_1983_124201">
<rect width="32" height="32" fill="white"/>
</clipPath>
</defs>
</svg>
