<svg width="32" height="32" viewBox="0 0 32 32" fill="none" xmlns="http://www.w3.org/2000/svg">
<g clip-path="url(#clip0_1983_124206)">
<path d="M16 32C24.8366 32 32 24.8366 32 16C32 7.16344 24.8366 0 16 0C7.16344 0 0 7.16344 0 16C0 24.8366 7.16344 32 16 32Z" fill="#FFE812"/>
<path d="M16.0004 7.59985C10.7004 7.59985 6.40039 10.9879 6.40039 15.1669C6.40039 17.8669 8.20039 20.2399 10.9004 21.5789C10.7534 22.0859 9.95539 24.8409 9.92439 25.0569C9.92439 25.0569 9.90539 25.2199 10.0104 25.2819C10.0456 25.2996 10.0841 25.3101 10.1234 25.3125C10.1628 25.3149 10.2023 25.3092 10.2394 25.2959C10.5394 25.2539 13.7394 23.0059 14.2944 22.6159C14.8576 22.6952 15.4256 22.735 15.9944 22.7349C21.2944 22.7349 25.5944 19.3469 25.5944 15.1679C25.5944 10.9889 21.3004 7.59985 16.0004 7.59985Z" fill="#3C1E1E"/>
<path d="M10.6905 17.8088C10.5469 17.812 10.4079 17.7581 10.304 17.6589C10.2001 17.5597 10.1399 17.4234 10.1365 17.2798V13.9868H9.27248C9.12873 13.9868 8.99087 13.9296 8.88922 13.828C8.78758 13.7264 8.73047 13.5885 8.73047 13.4448C8.73047 13.301 8.78758 13.1632 8.88922 13.0615C8.99087 12.9599 9.12873 12.9028 9.27248 12.9028H12.1075C12.2512 12.9028 12.3891 12.9599 12.4907 13.0615C12.5924 13.1632 12.6495 13.301 12.6495 13.4448C12.6495 13.5885 12.5924 13.7264 12.4907 13.828C12.3891 13.9296 12.2512 13.9868 12.1075 13.9868H11.2435V17.2758C11.2423 17.3471 11.2271 17.4175 11.1986 17.483C11.1702 17.5484 11.1291 17.6076 11.0777 17.6572C11.0263 17.7067 10.9656 17.7455 10.8992 17.7715C10.8328 17.7976 10.7618 17.8102 10.6905 17.8088ZM15.5455 17.8018C15.4528 17.8133 15.3587 17.796 15.2762 17.7522C15.1937 17.7084 15.1268 17.6401 15.0845 17.5568L14.8105 16.8388H13.1225L12.8485 17.5568C12.806 17.6399 12.739 17.7079 12.6565 17.7516C12.574 17.7952 12.4801 17.8124 12.3875 17.8008C12.266 17.8008 12.1459 17.7745 12.0355 17.7238C11.8825 17.6538 11.7355 17.4598 11.9045 16.9378L13.2285 13.4518C13.2764 13.2933 13.374 13.1545 13.5069 13.0558C13.6398 12.9572 13.801 12.9039 13.9665 12.9039C14.132 12.9039 14.2931 12.9572 14.426 13.0558C14.5589 13.1545 14.6566 13.2933 14.7045 13.4518L16.0285 16.9358C16.1975 17.4588 16.0505 17.6528 15.8975 17.7228C15.787 17.7735 15.667 17.7997 15.5455 17.7998V17.8018ZM14.5195 15.8588L13.9665 14.2878L13.4135 15.8588H14.5195ZM16.9195 17.7288C16.7817 17.7317 16.6484 17.6799 16.5489 17.5847C16.4493 17.4894 16.3916 17.3585 16.3885 17.2208V13.4598C16.3885 13.3099 16.448 13.1662 16.554 13.0602C16.6599 12.9543 16.8036 12.8948 16.9535 12.8948C17.1033 12.8948 17.247 12.9543 17.353 13.0602C17.459 13.1662 17.5185 13.3099 17.5185 13.4598V16.7128H18.6945C18.763 16.7097 18.8315 16.7206 18.8957 16.7448C18.9599 16.7689 19.0186 16.8058 19.0682 16.8532C19.1178 16.9006 19.1572 16.9576 19.1841 17.0207C19.2111 17.0838 19.225 17.1517 19.225 17.2203C19.225 17.2889 19.2111 17.3568 19.1841 17.4199C19.1572 17.483 19.1178 17.5399 19.0682 17.5873C19.0186 17.6348 18.9599 17.6717 18.8957 17.6958C18.8315 17.7199 18.763 17.7308 18.6945 17.7278L16.9195 17.7288ZM19.9955 17.8028C19.8486 17.8028 19.7076 17.7444 19.6037 17.6405C19.4998 17.5366 19.4415 17.3957 19.4415 17.2488V13.4608C19.4475 13.318 19.5085 13.1832 19.6116 13.0844C19.7148 12.9855 19.8521 12.9303 19.995 12.9303C20.1378 12.9303 20.2752 12.9855 20.3783 13.0844C20.4814 13.1832 20.5424 13.318 20.5485 13.4608V14.6508L22.0935 13.1058C22.134 13.0661 22.182 13.0348 22.2347 13.0137C22.2874 12.9926 22.3437 12.9821 22.4005 12.9828C22.5387 12.9865 22.6706 13.0411 22.771 13.1362C22.8714 13.2312 22.9332 13.36 22.9445 13.4978C22.9495 13.5594 22.9411 13.6214 22.9201 13.6795C22.899 13.7376 22.8657 13.7906 22.8225 13.8348L21.5605 15.0958L22.9235 16.9018C23.0063 17.0194 23.0401 17.1645 23.0179 17.3065C22.9956 17.4486 22.919 17.5764 22.8042 17.663C22.6895 17.7496 22.5455 17.7882 22.4028 17.7706C22.2601 17.753 22.1298 17.6807 22.0395 17.5688L20.7395 15.8478L20.5475 16.0398V17.2478C20.5472 17.3947 20.4888 17.5354 20.3849 17.6392C20.2811 17.7431 20.1403 17.8015 19.9935 17.8018L19.9955 17.8028Z" fill="#FFE812"/>
</g>
<defs>
<clipPath id="clip0_1983_124206">
<rect width="32" height="32" fill="white"/>
</clipPath>
</defs>
</svg>
